solid Created by Gmsh
facet normal 0 0 1
  outer loop
    vertex 0.3375320631441116 0.06678384785671282 0
    vertex 0.3057296803556926 0.0327470221947365 0
    vertex 0.3439240084660257 0.02815312515898015 0
  endloop
endfacet
facet normal 0 -0 1
  outer loop
    vertex 0.06246793685588842 0.03321615214328721 0
    vertex 0.09427031964430746 0.06725297780526351 0
    vertex 0.05607599153397433 0.07184687484101987 0
  endloop
endfacet
facet normal 0 0 1
  outer loop
    vertex 0.2929220105240187 0.06690414400134842 0
    vertex 0.3057296803556926 0.0327470221947365 0
    vertex 0.3375320631441116 0.06678384785671282 0
  endloop
endfacet
facet normal 0 0 1
  outer loop
    vertex 0.1070779894759813 0.03309585599865159 0
    vertex 0.09427031964430746 0.06725297780526351 0
    vertex 0.06246793685588842 0.03321615214328721 0
  endloop
endfacet
facet normal -0 0 1
  outer loop
    vertex 0.1799999999999996 0.03464101615137753 0
    vertex 0.2199999999999998 0.02692820323027552 0
    vertex 0.2200000000000004 0.06535898384862246 0
  endloop
endfacet
facet normal 0 0 1
  outer loop
    vertex 0.2200000000000004 0.06535898384862246 0
    vertex 0.1800000000000002 0.07307179676972449 0
    vertex 0.1799999999999996 0.03464101615137753 0
  endloop
endfacet
facet normal 0 0 1
  outer loop
    vertex 0.2929220105240187 0.06690414400134842 0
    vertex 0.2585844021048039 0.07338082880026969 0
    vertex 0.2599999999999998 0.03464101615137759 0
  endloop
endfacet
facet normal 0 0 1
  outer loop
    vertex 0.1400000000000002 0.06535898384862242 0
    vertex 0.09427031964430746 0.06725297780526351 0
    vertex 0.1070779894759813 0.03309585599865159 0
  endloop
endfacet
facet normal -0 0 1
  outer loop
    vertex 0.1070779894759813 0.03309585599865159 0
    vertex 0.1414155978951961 0.0266191711997303 0
    vertex 0.1400000000000002 0.06535898384862242 0
  endloop
endfacet
facet normal -0 0 1
  outer loop
    vertex 0.2599999999999998 0.03464101615137759 0
    vertex 0.3057296803556926 0.0327470221947365 0
    vertex 0.2929220105240187 0.06690414400134842 0
  endloop
endfacet
facet normal 0 0 1
  outer loop
    vertex 0.2599999999999998 0.03464101615137759 0
    vertex 0.2585844021048039 0.07338082880026969 0
    vertex 0.2200000000000004 0.06535898384862246 0
  endloop
endfacet
facet normal 0 0 1
  outer loop
    vertex 0.1400000000000002 0.06535898384862242 0
    vertex 0.1414155978951961 0.0266191711997303 0
    vertex 0.1799999999999996 0.03464101615137753 0
  endloop
endfacet
facet normal 0 0 1
  outer loop
    vertex 0.2200000000000004 0.06535898384862246 0
    vertex 0.2199999999999998 0.02692820323027552 0
    vertex 0.2599999999999998 0.03464101615137759 0
  endloop
endfacet
facet normal 0 -0 1
  outer loop
    vertex 0.1799999999999996 0.03464101615137753 0
    vertex 0.1800000000000002 0.07307179676972449 0
    vertex 0.1400000000000002 0.06535898384862242 0
  endloop
endfacet
facet normal -0 0 1
  outer loop
    vertex 0.2000000000000004 0.1 0
    vertex 0.2200000000000004 0.06535898384862246 0
    vertex 0.2400000000000004 0.1 0
  endloop
endfacet
facet normal 0 0 1
  outer loop
    vertex 0.2799999999999998 0 0
    vertex 0.2599999999999998 0.03464101615137759 0
    vertex 0.2399999999999997 0 0
  endloop
endfacet
facet normal 0 0 1
  outer loop
    vertex 0.1999999999999997 0 0
    vertex 0.1799999999999996 0.03464101615137753 0
    vertex 0.1599999999999996 0 0
  endloop
endfacet
facet normal -0 0 1
  outer loop
    vertex 0.1200000000000002 0.1 0
    vertex 0.1400000000000002 0.06535898384862242 0
    vertex 0.1600000000000003 0.1 0
  endloop
endfacet
facet normal 0 0 1
  outer loop
    vertex 0.1199999999999997 0 0
    vertex 0.1070779894759813 0.03309585599865159 0
    vertex 0.07999999999999981 0 0
  endloop
endfacet
facet normal -0 0 1
  outer loop
    vertex 0.2800000000000004 0.1 0
    vertex 0.2929220105240187 0.06690414400134842 0
    vertex 0.3200000000000002 0.1 0
  endloop
endfacet
facet normal 0 0 1
  outer loop
    vertex 0.07999999999999981 0 0
    vertex 0.06246793685588842 0.03321615214328721 0
    vertex 0.0399999999999999 0 0
  endloop
endfacet
facet normal -0 0 1
  outer loop
    vertex 0.3200000000000002 0.1 0
    vertex 0.3375320631441116 0.06678384785671282 0
    vertex 0.3600000000000001 0.1 0
  endloop
endfacet
facet normal 0 0 1
  outer loop
    vertex 0.2599999999999998 0.03464101615137759 0
    vertex 0.2199999999999998 0.02692820323027552 0
    vertex 0.2399999999999997 0 0
  endloop
endfacet
facet normal 0 0 1
  outer loop
    vertex 0.1400000000000002 0.06535898384862242 0
    vertex 0.1800000000000002 0.07307179676972449 0
    vertex 0.1600000000000003 0.1 0
  endloop
endfacet
facet normal 0 0 1
  outer loop
    vertex 0.2200000000000004 0.06535898384862246 0
    vertex 0.2585844021048039 0.07338082880026969 0
    vertex 0.2400000000000004 0.1 0
  endloop
endfacet
facet normal 0 -0 1
  outer loop
    vertex 0.2799999999999998 0 0
    vertex 0.3057296803556926 0.0327470221947365 0
    vertex 0.2599999999999998 0.03464101615137759 0
  endloop
endfacet
facet normal 0 0 1
  outer loop
    vertex 0.1200000000000002 0.1 0
    vertex 0.09427031964430746 0.06725297780526351 0
    vertex 0.1400000000000002 0.06535898384862242 0
  endloop
endfacet
facet normal 0 0 1
  outer loop
    vertex 0.1799999999999996 0.03464101615137753 0
    vertex 0.1414155978951961 0.0266191711997303 0
    vertex 0.1599999999999996 0 0
  endloop
endfacet
facet normal 0 -0 1
  outer loop
    vertex 0.1999999999999997 0 0
    vertex 0.2199999999999998 0.02692820323027552 0
    vertex 0.1799999999999996 0.03464101615137753 0
  endloop
endfacet
facet normal 0 0 1
  outer loop
    vertex 0.2000000000000004 0.1 0
    vertex 0.1800000000000002 0.07307179676972449 0
    vertex 0.2200000000000004 0.06535898384862246 0
  endloop
endfacet
facet normal 0 -0 1
  outer loop
    vertex 0.1199999999999997 0 0
    vertex 0.1414155978951961 0.0266191711997303 0
    vertex 0.1070779894759813 0.03309585599865159 0
  endloop
endfacet
facet normal 0 0 1
  outer loop
    vertex 0.2800000000000004 0.1 0
    vertex 0.2585844021048039 0.07338082880026969 0
    vertex 0.2929220105240187 0.06690414400134842 0
  endloop
endfacet
facet normal -0 0 1
  outer loop
    vertex 0.2929220105240187 0.06690414400134842 0
    vertex 0.3375320631441116 0.06678384785671282 0
    vertex 0.3200000000000002 0.1 0
  endloop
endfacet
facet normal 0 0 1
  outer loop
    vertex 0.1070779894759813 0.03309585599865159 0
    vertex 0.06246793685588842 0.03321615214328721 0
    vertex 0.07999999999999981 0 0
  endloop
endfacet
facet normal 0 0 1
  outer loop
    vertex 0 0.0333333333333334 0
    vertex 0.02874970480943323 0.05043720144568875 0
    vertex 0 0.06666666666666676 0
  endloop
endfacet
facet normal 0 0 1
  outer loop
    vertex 0.4 0.06666666666666661 0
    vertex 0.3712502951905668 0.04956279855431126 0
    vertex 0.4 0.03333333333333324 0
  endloop
endfacet
facet normal -0 0 1
  outer loop
    vertex 0 0.1 0
    vertex 0.02523830753852369 0.07704736428710503 0
    vertex 0.04000000000000009 0.1 0
  endloop
endfacet
facet normal 0 0 1
  outer loop
    vertex 0.4 0 0
    vertex 0.3747616924614764 0.02295263571289499 0
    vertex 0.3599999999999999 0 0
  endloop
endfacet
facet normal -0 0 1
  outer loop
    vertex 0.3600000000000001 0.1 0
    vertex 0.3737564716669357 0.07660266261553814 0
    vertex 0.4 0.1 0
  endloop
endfacet
facet normal 0 0 1
  outer loop
    vertex 0.0399999999999999 0 0
    vertex 0.02624352833306431 0.02339733738446187 0
    vertex 0 0 0
  endloop
endfacet
facet normal -0 0 1
  outer loop
    vertex 0.05607599153397433 0.07184687484101987 0
    vertex 0.09427031964430746 0.06725297780526351 0
    vertex 0.08000000000000018 0.1 0
  endloop
endfacet
facet normal 0 0 1
  outer loop
    vertex 0.3439240084660257 0.02815312515898015 0
    vertex 0.3057296803556926 0.0327470221947365 0
    vertex 0.3199999999999998 0 0
  endloop
endfacet
facet normal 0 0 1
  outer loop
    vertex 0.3599999999999999 0 0
    vertex 0.3439240084660257 0.02815312515898015 0
    vertex 0.3199999999999998 0 0
  endloop
endfacet
facet normal -0 0 1
  outer loop
    vertex 0.04000000000000009 0.1 0
    vertex 0.05607599153397433 0.07184687484101987 0
    vertex 0.08000000000000018 0.1 0
  endloop
endfacet
facet normal 0 0 1
  outer loop
    vertex 0.3375320631441116 0.06678384785671282 0
    vertex 0.3439240084660257 0.02815312515898015 0
    vertex 0.3712502951905668 0.04956279855431126 0
  endloop
endfacet
facet normal 0 0 1
  outer loop
    vertex 0.06246793685588842 0.03321615214328721 0
    vertex 0.05607599153397433 0.07184687484101987 0
    vertex 0.02874970480943323 0.05043720144568875 0
  endloop
endfacet
facet normal 0 0 1
  outer loop
    vertex 0.3375320631441116 0.06678384785671282 0
    vertex 0.3737564716669357 0.07660266261553814 0
    vertex 0.3600000000000001 0.1 0
  endloop
endfacet
facet normal 0 0 1
  outer loop
    vertex 0.06246793685588842 0.03321615214328721 0
    vertex 0.02624352833306431 0.02339733738446187 0
    vertex 0.0399999999999999 0 0
  endloop
endfacet
facet normal 0 0 1
  outer loop
    vertex 0.1599999999999996 0 0
    vertex 0.1414155978951961 0.0266191711997303 0
    vertex 0.1199999999999997 0 0
  endloop
endfacet
facet normal 0 0 1
  outer loop
    vertex 0.3199999999999998 0 0
    vertex 0.3057296803556926 0.0327470221947365 0
    vertex 0.2799999999999998 0 0
  endloop
endfacet
facet normal -0 0 1
  outer loop
    vertex 0.2400000000000004 0.1 0
    vertex 0.2585844021048039 0.07338082880026969 0
    vertex 0.2800000000000004 0.1 0
  endloop
endfacet
facet normal -0 0 1
  outer loop
    vertex 0.08000000000000018 0.1 0
    vertex 0.09427031964430746 0.06725297780526351 0
    vertex 0.1200000000000002 0.1 0
  endloop
endfacet
facet normal 0 0 1
  outer loop
    vertex 0.2399999999999997 0 0
    vertex 0.2199999999999998 0.02692820323027552 0
    vertex 0.1999999999999997 0 0
  endloop
endfacet
facet normal -0 0 1
  outer loop
    vertex 0.1600000000000003 0.1 0
    vertex 0.1800000000000002 0.07307179676972449 0
    vertex 0.2000000000000004 0.1 0
  endloop
endfacet
facet normal 0 -0 1
  outer loop
    vertex 0.3712502951905668 0.04956279855431126 0
    vertex 0.3737564716669357 0.07660266261553814 0
    vertex 0.3375320631441116 0.06678384785671282 0
  endloop
endfacet
facet normal 0 0 1
  outer loop
    vertex 0.02874970480943323 0.05043720144568875 0
    vertex 0.02624352833306431 0.02339733738446187 0
    vertex 0.06246793685588842 0.03321615214328721 0
  endloop
endfacet
facet normal 0 0 1
  outer loop
    vertex 0 0 0
    vertex 0.02624352833306431 0.02339733738446187 0
    vertex 0 0.0333333333333334 0
  endloop
endfacet
facet normal 0 0 1
  outer loop
    vertex 0 0.06666666666666676 0
    vertex 0.02523830753852369 0.07704736428710503 0
    vertex 0 0.1 0
  endloop
endfacet
facet normal 0 0 1
  outer loop
    vertex 0.4 0.03333333333333324 0
    vertex 0.3747616924614764 0.02295263571289499 0
    vertex 0.4 0 0
  endloop
endfacet
facet normal 0 0 1
  outer loop
    vertex 0.4 0.1 0
    vertex 0.3737564716669357 0.07660266261553814 0
    vertex 0.4 0.06666666666666661 0
  endloop
endfacet
facet normal -0 0 1
  outer loop
    vertex 0.3439240084660257 0.02815312515898015 0
    vertex 0.3747616924614764 0.02295263571289499 0
    vertex 0.3712502951905668 0.04956279855431126 0
  endloop
endfacet
facet normal 0 0 1
  outer loop
    vertex 0.05607599153397433 0.07184687484101987 0
    vertex 0.02523830753852369 0.07704736428710503 0
    vertex 0.02874970480943323 0.05043720144568875 0
  endloop
endfacet
facet normal 0 -0 1
  outer loop
    vertex 0.3599999999999999 0 0
    vertex 0.3747616924614764 0.02295263571289499 0
    vertex 0.3439240084660257 0.02815312515898015 0
  endloop
endfacet
facet normal 0 0 1
  outer loop
    vertex 0.04000000000000009 0.1 0
    vertex 0.02523830753852369 0.07704736428710503 0
    vertex 0.05607599153397433 0.07184687484101987 0
  endloop
endfacet
facet normal 0 0 1
  outer loop
    vertex 0.4 0.06666666666666661 0
    vertex 0.3737564716669357 0.07660266261553814 0
    vertex 0.3712502951905668 0.04956279855431126 0
  endloop
endfacet
facet normal 0 0 1
  outer loop
    vertex 0.3712502951905668 0.04956279855431126 0
    vertex 0.3747616924614764 0.02295263571289499 0
    vertex 0.4 0.03333333333333324 0
  endloop
endfacet
facet normal 0 0 1
  outer loop
    vertex 0.02874970480943323 0.05043720144568875 0
    vertex 0.02523830753852369 0.07704736428710503 0
    vertex 0 0.06666666666666676 0
  endloop
endfacet
facet normal -0 0 1
  outer loop
    vertex 0 0.0333333333333334 0
    vertex 0.02624352833306431 0.02339733738446187 0
    vertex 0.02874970480943323 0.05043720144568875 0
  endloop
endfacet
facet normal 0 -0 1
  outer loop
    vertex 0.06246793685588845 0.03321615214328717 0
    vertex 0.09427031964430747 0.06725297780526351 0
    vertex 0.0560759915339743 0.07184687484101986 0
  endloop
endfacet
facet normal 0 0 1
  outer loop
    vertex 0.3375320631441116 0.06678384785671282 0
    vertex 0.3057296803556926 0.03274702219473649 0
    vertex 0.3439240084660257 0.02815312515898015 0
  endloop
endfacet
facet normal 0 0 1
  outer loop
    vertex 0.2929220105240187 0.06690414400134842 0
    vertex 0.3057296803556926 0.03274702219473649 0
    vertex 0.3375320631441116 0.06678384785671282 0
  endloop
endfacet
facet normal 0 0 1
  outer loop
    vertex 0.1070779894759813 0.03309585599865159 0
    vertex 0.09427031964430747 0.06725297780526351 0
    vertex 0.06246793685588845 0.03321615214328717 0
  endloop
endfacet
facet normal 0 0 1
  outer loop
    vertex 0.2200000000000004 0.06535898384862246 0
    vertex 0.1800000000000002 0.07307179676972449 0
    vertex 0.1799999999999996 0.03464101615137753 0
  endloop
endfacet
facet normal -0 0 1
  outer loop
    vertex 0.1799999999999996 0.03464101615137753 0
    vertex 0.2199999999999998 0.02692820323027552 0
    vertex 0.2200000000000004 0.06535898384862246 0
  endloop
endfacet
facet normal 0 0 1
  outer loop
    vertex 0.2929220105240187 0.06690414400134842 0
    vertex 0.2585844021048039 0.07338082880026969 0
    vertex 0.2599999999999998 0.03464101615137759 0
  endloop
endfacet
facet normal 0 0 1
  outer loop
    vertex 0.1400000000000002 0.06535898384862242 0
    vertex 0.09427031964430747 0.06725297780526351 0
    vertex 0.1070779894759813 0.03309585599865159 0
  endloop
endfacet
facet normal -0 0 1
  outer loop
    vertex 0.1070779894759813 0.03309585599865159 0
    vertex 0.1414155978951961 0.02661917119973031 0
    vertex 0.1400000000000002 0.06535898384862242 0
  endloop
endfacet
facet normal -0 0 1
  outer loop
    vertex 0.2599999999999998 0.03464101615137759 0
    vertex 0.3057296803556926 0.03274702219473649 0
    vertex 0.2929220105240187 0.06690414400134842 0
  endloop
endfacet
facet normal 0 0 1
  outer loop
    vertex 0.1400000000000002 0.06535898384862242 0
    vertex 0.1414155978951961 0.02661917119973031 0
    vertex 0.1799999999999996 0.03464101615137753 0
  endloop
endfacet
facet normal 0 -0 1
  outer loop
    vertex 0.1799999999999996 0.03464101615137753 0
    vertex 0.1800000000000002 0.07307179676972449 0
    vertex 0.1400000000000002 0.06535898384862242 0
  endloop
endfacet
facet normal 0 0 1
  outer loop
    vertex 0.2599999999999998 0.03464101615137759 0
    vertex 0.2585844021048039 0.07338082880026969 0
    vertex 0.2200000000000004 0.06535898384862246 0
  endloop
endfacet
facet normal 0 0 1
  outer loop
    vertex 0.2200000000000004 0.06535898384862246 0
    vertex 0.2199999999999998 0.02692820323027552 0
    vertex 0.2599999999999998 0.03464101615137759 0
  endloop
endfacet
facet normal -0 0 1
  outer loop
    vertex 0.2000000000000004 0.1 0
    vertex 0.2200000000000004 0.06535898384862246 0
    vertex 0.2400000000000004 0.1 0
  endloop
endfacet
facet normal 0 0 1
  outer loop
    vertex 0.1999999999999997 0 0
    vertex 0.1799999999999996 0.03464101615137753 0
    vertex 0.1599999999999996 0 0
  endloop
endfacet
facet normal 0 0 1
  outer loop
    vertex 0.2799999999999998 0 0
    vertex 0.2599999999999998 0.03464101615137759 0
    vertex 0.2399999999999997 0 0
  endloop
endfacet
facet normal -0 0 1
  outer loop
    vertex 0.1200000000000002 0.1 0
    vertex 0.1400000000000002 0.06535898384862242 0
    vertex 0.1600000000000003 0.1 0
  endloop
endfacet
facet normal 0 0 1
  outer loop
    vertex 0.1199999999999997 0 0
    vertex 0.1070779894759813 0.03309585599865159 0
    vertex 0.07999999999999981 0 0
  endloop
endfacet
facet normal -0 0 1
  outer loop
    vertex 0.2800000000000004 0.1 0
    vertex 0.2929220105240187 0.06690414400134842 0
    vertex 0.3200000000000002 0.1 0
  endloop
endfacet
facet normal -0 0 1
  outer loop
    vertex 0.3200000000000002 0.1 0
    vertex 0.3375320631441116 0.06678384785671282 0
    vertex 0.3600000000000001 0.1 0
  endloop
endfacet
facet normal 0 0 1
  outer loop
    vertex 0.07999999999999981 0 0
    vertex 0.06246793685588845 0.03321615214328717 0
    vertex 0.0399999999999999 0 0
  endloop
endfacet
facet normal 0 0 1
  outer loop
    vertex 0.1400000000000002 0.06535898384862242 0
    vertex 0.1800000000000002 0.07307179676972449 0
    vertex 0.1600000000000003 0.1 0
  endloop
endfacet
facet normal 0 0 1
  outer loop
    vertex 0.1799999999999996 0.03464101615137753 0
    vertex 0.1414155978951961 0.02661917119973031 0
    vertex 0.1599999999999996 0 0
  endloop
endfacet
facet normal 0 0 1
  outer loop
    vertex 0.2599999999999998 0.03464101615137759 0
    vertex 0.2199999999999998 0.02692820323027552 0
    vertex 0.2399999999999997 0 0
  endloop
endfacet
facet normal 0 -0 1
  outer loop
    vertex 0.2799999999999998 0 0
    vertex 0.3057296803556926 0.03274702219473649 0
    vertex 0.2599999999999998 0.03464101615137759 0
  endloop
endfacet
facet normal 0 0 1
  outer loop
    vertex 0.1200000000000002 0.1 0
    vertex 0.09427031964430747 0.06725297780526351 0
    vertex 0.1400000000000002 0.06535898384862242 0
  endloop
endfacet
facet normal 0 0 1
  outer loop
    vertex 0.2200000000000004 0.06535898384862246 0
    vertex 0.2585844021048039 0.07338082880026969 0
    vertex 0.2400000000000004 0.1 0
  endloop
endfacet
facet normal 0 -0 1
  outer loop
    vertex 0.1999999999999997 0 0
    vertex 0.2199999999999998 0.02692820323027552 0
    vertex 0.1799999999999996 0.03464101615137753 0
  endloop
endfacet
facet normal 0 0 1
  outer loop
    vertex 0.2000000000000004 0.1 0
    vertex 0.1800000000000002 0.07307179676972449 0
    vertex 0.2200000000000004 0.06535898384862246 0
  endloop
endfacet
facet normal 0 -0 1
  outer loop
    vertex 0.1199999999999997 0 0
    vertex 0.1414155978951961 0.02661917119973031 0
    vertex 0.1070779894759813 0.03309585599865159 0
  endloop
endfacet
facet normal 0 0 1
  outer loop
    vertex 0.2800000000000004 0.1 0
    vertex 0.2585844021048039 0.07338082880026969 0
    vertex 0.2929220105240187 0.06690414400134842 0
  endloop
endfacet
facet normal -0 0 1
  outer loop
    vertex 0.2929220105240187 0.06690414400134842 0
    vertex 0.3375320631441116 0.06678384785671282 0
    vertex 0.3200000000000002 0.1 0
  endloop
endfacet
facet normal 0 0 1
  outer loop
    vertex 0.1070779894759813 0.03309585599865159 0
    vertex 0.06246793685588845 0.03321615214328717 0
    vertex 0.07999999999999981 0 0
  endloop
endfacet
facet normal 0 0 1
  outer loop
    vertex 0 0.0333333333333334 0
    vertex 0.02874970480943323 0.05043720144568874 0
    vertex 0 0.06666666666666676 0
  endloop
endfacet
facet normal 0 0 1
  outer loop
    vertex 0.4 0.06666666666666661 0
    vertex 0.3712502951905668 0.04956279855431126 0
    vertex 0.4 0.03333333333333324 0
  endloop
endfacet
facet normal 0 0 1
  outer loop
    vertex 0.4 0 0
    vertex 0.3747616924614764 0.02295263571289501 0
    vertex 0.3599999999999999 0 0
  endloop
endfacet
facet normal -0 0 1
  outer loop
    vertex 0 0.1 0
    vertex 0.02523830753852366 0.07704736428710503 0
    vertex 0.04000000000000009 0.1 0
  endloop
endfacet
facet normal -0 0 1
  outer loop
    vertex 0.3600000000000001 0.1 0
    vertex 0.3737564716669357 0.07660266261553814 0
    vertex 0.4 0.1 0
  endloop
endfacet
facet normal 0 0 1
  outer loop
    vertex 0.0399999999999999 0 0
    vertex 0.02624352833306431 0.02339733738446186 0
    vertex 0 0 0
  endloop
endfacet
facet normal -0 0 1
  outer loop
    vertex 0.0560759915339743 0.07184687484101986 0
    vertex 0.09427031964430747 0.06725297780526351 0
    vertex 0.08000000000000018 0.1 0
  endloop
endfacet
facet normal 0 0 1
  outer loop
    vertex 0.3439240084660257 0.02815312515898015 0
    vertex 0.3057296803556926 0.03274702219473649 0
    vertex 0.3199999999999998 0 0
  endloop
endfacet
facet normal 0 0 1
  outer loop
    vertex 0.3599999999999999 0 0
    vertex 0.3439240084660257 0.02815312515898015 0
    vertex 0.3199999999999998 0 0
  endloop
endfacet
facet normal -0 0 1
  outer loop
    vertex 0.04000000000000009 0.1 0
    vertex 0.0560759915339743 0.07184687484101986 0
    vertex 0.08000000000000018 0.1 0
  endloop
endfacet
facet normal 0 0 1
  outer loop
    vertex 0.06246793685588845 0.03321615214328717 0
    vertex 0.0560759915339743 0.07184687484101986 0
    vertex 0.02874970480943323 0.05043720144568874 0
  endloop
endfacet
facet normal 0 0 1
  outer loop
    vertex 0.3375320631441116 0.06678384785671282 0
    vertex 0.3439240084660257 0.02815312515898015 0
    vertex 0.3712502951905668 0.04956279855431126 0
  endloop
endfacet
facet normal 0 0 1
  outer loop
    vertex 0.3375320631441116 0.06678384785671282 0
    vertex 0.3737564716669357 0.07660266261553814 0
    vertex 0.3600000000000001 0.1 0
  endloop
endfacet
facet normal 0 0 1
  outer loop
    vertex 0.06246793685588845 0.03321615214328717 0
    vertex 0.02624352833306431 0.02339733738446186 0
    vertex 0.0399999999999999 0 0
  endloop
endfacet
facet normal 0 0 1
  outer loop
    vertex 0.1599999999999996 0 0
    vertex 0.1414155978951961 0.02661917119973031 0
    vertex 0.1199999999999997 0 0
  endloop
endfacet
facet normal 0 0 1
  outer loop
    vertex 0.3199999999999998 0 0
    vertex 0.3057296803556926 0.03274702219473649 0
    vertex 0.2799999999999998 0 0
  endloop
endfacet
facet normal -0 0 1
  outer loop
    vertex 0.2400000000000004 0.1 0
    vertex 0.2585844021048039 0.07338082880026969 0
    vertex 0.2800000000000004 0.1 0
  endloop
endfacet
facet normal -0 0 1
  outer loop
    vertex 0.08000000000000018 0.1 0
    vertex 0.09427031964430747 0.06725297780526351 0
    vertex 0.1200000000000002 0.1 0
  endloop
endfacet
facet normal -0 0 1
  outer loop
    vertex 0.1600000000000003 0.1 0
    vertex 0.1800000000000002 0.07307179676972449 0
    vertex 0.2000000000000004 0.1 0
  endloop
endfacet
facet normal 0 0 1
  outer loop
    vertex 0.2399999999999997 0 0
    vertex 0.2199999999999998 0.02692820323027552 0
    vertex 0.1999999999999997 0 0
  endloop
endfacet
facet normal 0 0 1
  outer loop
    vertex 0.02874970480943323 0.05043720144568874 0
    vertex 0.02624352833306431 0.02339733738446186 0
    vertex 0.06246793685588845 0.03321615214328717 0
  endloop
endfacet
facet normal 0 -0 1
  outer loop
    vertex 0.3712502951905668 0.04956279855431126 0
    vertex 0.3737564716669357 0.07660266261553814 0
    vertex 0.3375320631441116 0.06678384785671282 0
  endloop
endfacet
facet normal 0 0 1
  outer loop
    vertex 0.4 0.03333333333333324 0
    vertex 0.3747616924614764 0.02295263571289501 0
    vertex 0.4 0 0
  endloop
endfacet
facet normal 0 0 1
  outer loop
    vertex 0 0.06666666666666676 0
    vertex 0.02523830753852366 0.07704736428710503 0
    vertex 0 0.1 0
  endloop
endfacet
facet normal 0 0 1
  outer loop
    vertex 0 0 0
    vertex 0.02624352833306431 0.02339733738446186 0
    vertex 0 0.0333333333333334 0
  endloop
endfacet
facet normal 0 0 1
  outer loop
    vertex 0.4 0.1 0
    vertex 0.3737564716669357 0.07660266261553814 0
    vertex 0.4 0.06666666666666661 0
  endloop
endfacet
facet normal -0 0 1
  outer loop
    vertex 0.3439240084660257 0.02815312515898015 0
    vertex 0.3747616924614764 0.02295263571289501 0
    vertex 0.3712502951905668 0.04956279855431126 0
  endloop
endfacet
facet normal 0 0 1
  outer loop
    vertex 0.0560759915339743 0.07184687484101986 0
    vertex 0.02523830753852366 0.07704736428710503 0
    vertex 0.02874970480943323 0.05043720144568874 0
  endloop
endfacet
facet normal 0 -0 1
  outer loop
    vertex 0.3599999999999999 0 0
    vertex 0.3747616924614764 0.02295263571289501 0
    vertex 0.3439240084660257 0.02815312515898015 0
  endloop
endfacet
facet normal 0 0 1
  outer loop
    vertex 0.04000000000000009 0.1 0
    vertex 0.02523830753852366 0.07704736428710503 0
    vertex 0.0560759915339743 0.07184687484101986 0
  endloop
endfacet
facet normal 0 0 1
  outer loop
    vertex 0.02874970480943323 0.05043720144568874 0
    vertex 0.02523830753852366 0.07704736428710503 0
    vertex 0 0.06666666666666676 0
  endloop
endfacet
facet normal 0 0 1
  outer loop
    vertex 0.3712502951905668 0.04956279855431126 0
    vertex 0.3747616924614764 0.02295263571289501 0
    vertex 0.4 0.03333333333333324 0
  endloop
endfacet
facet normal -0 0 1
  outer loop
    vertex 0 0.0333333333333334 0
    vertex 0.02624352833306431 0.02339733738446186 0
    vertex 0.02874970480943323 0.05043720144568874 0
  endloop
endfacet
facet normal 0 0 1
  outer loop
    vertex 0.4 0.06666666666666661 0
    vertex 0.3737564716669357 0.07660266261553814 0
    vertex 0.3712502951905668 0.04956279855431126 0
  endloop
endfacet
endsolid Created by Gmsh
