solid Created by Gmsh
facet normal 0 -0 1
  outer loop
    vertex 0.1748074522594587 -0.1367177542959085 0
    vertex 0.1794788648870723 -0.04506032825799493 0
    vertex 0.1070378807133901 -0.08380317633056483 0
  endloop
endfacet
facet normal 0 0 1
  outer loop
    vertex -0.03564449652762194 0.1568193468938448 0
    vertex -0.1054372381945055 0.2011640481846112 0
    vertex -0.1132018271014532 0.1184540600820546 0
  endloop
endfacet
facet normal 0 0 1
  outer loop
    vertex -0.03706777338351622 0.2286306765098975 0
    vertex -0.1054372381945055 0.2011640481846112 0
    vertex -0.03564449652762194 0.1568193468938448 0
  endloop
endfacet
facet normal 0 0 1
  outer loop
    vertex 0.1748074522594587 -0.1367177542959085 0
    vertex 0.2261007534896311 -0.09304361576724278 0
    vertex 0.1794788648870723 -0.04506032825799493 0
  endloop
endfacet
facet normal 0 0 1
  outer loop
    vertex -0.1132018271014532 0.1184540600820546 0
    vertex -0.1635682239682726 0.1743392066793236 0
    vertex -0.1934845706996181 0.1176605739290039 0
  endloop
endfacet
facet normal -0 0 1
  outer loop
    vertex -0.1934845706996181 0.1176605739290039 0
    vertex -0.1599261274128771 0.06511209658972615 0
    vertex -0.1132018271014532 0.1184540600820546 0
  endloop
endfacet
facet normal 0 0 1
  outer loop
    vertex 0.03807377124993026 -0.04181285200473173 0
    vertex 0.03391595906221707 -0.116786566227154 0
    vertex 0.1070378807133901 -0.08380317633056483 0
  endloop
endfacet
facet normal -0 0 1
  outer loop
    vertex -0.03337645692536129 -0.08066535754856144 0
    vertex 0.03391595906221707 -0.116786566227154 0
    vertex 0.03807377124993026 -0.04181285200473173 0
  endloop
endfacet
facet normal 0 0 1
  outer loop
    vertex -0.03097142245493091 0.0007116736924787853 0
    vertex -0.09825836758759442 0.03941728586986428 0
    vertex -0.09883646014699121 -0.03854866670200895 0
  endloop
endfacet
facet normal 0 -0 1
  outer loop
    vertex 0.04002922535326135 0.03987516849053811 0
    vertex 0.1018160542600638 0.07108771462944863 0
    vertex 0.04002136325327317 0.1150714277229864 0
  endloop
endfacet
facet normal -0 0 1
  outer loop
    vertex -0.275163390451636 0.1195203269538723 0
    vertex -0.1934845706996181 0.1176605739290039 0
    vertex -0.232713387211326 0.1893263832978158 0
  endloop
endfacet
facet normal 0 0 1
  outer loop
    vertex 0.1380195113193455 -0.2663655655207127 0
    vertex 0.08147094710807257 -0.2240116426100298 0
    vertex 0.06103680391578999 -0.2937252263046969 0
  endloop
endfacet
facet normal 0 -0 1
  outer loop
    vertex -0.2751633904516358 -0.1195203269538725 0
    vertex -0.2210029411249406 -0.06055156171767693 0
    vertex -0.2972057838108992 -0.04084999472887392 0
  endloop
endfacet
facet normal 0 0 1
  outer loop
    vertex 0.2888751862043398 0.08093903134710737 0
    vertex 0.2274278252482852 0.02791355515975007 0
    vertex 0.3 0 0
  endloop
endfacet
facet normal 0 0 1
  outer loop
    vertex 0.1380195113193455 0.2663655655207127 0
    vertex 0.1310824949238431 0.1861985736770066 0
    vertex 0.2047659429655961 0.2192507892834373 0
  endloop
endfacet
facet normal 0 0 1
  outer loop
    vertex -0.1004638836512959 -0.2826782766356461 0
    vertex -0.1041824259206327 -0.2010629550300354 0
    vertex -0.1730040966344601 -0.2450909679031326 0
  endloop
endfacet
facet normal -0 0 1
  outer loop
    vertex -0.100463883651296 0.2826782766356461 0
    vertex -0.03706777338351622 0.2286306765098975 0
    vertex -0.02047272400940146 0.2993006307571617 0
  endloop
endfacet
facet normal 0 0 1
  outer loop
    vertex 0.2563258213639464 -0.1558751850106303 0
    vertex 0.1748074522594587 -0.1367177542959085 0
    vertex 0.2047659429655963 -0.2192507892834372 0
  endloop
endfacet
facet normal 0 -0 1
  outer loop
    vertex 0.1070378807133901 -0.08380317633056483 0
    vertex 0.1794788648870723 -0.04506032825799493 0
    vertex 0.1062088312742031 -0.002515231840056366 0
  endloop
endfacet
facet normal 0 0 1
  outer loop
    vertex -0.02882761405332447 0.08064024998536554 0
    vertex -0.1132018271014532 0.1184540600820546 0
    vertex -0.09825836758759442 0.03941728586986428 0
  endloop
endfacet
facet normal 0 0 1
  outer loop
    vertex -0.02882761405332447 0.08064024998536554 0
    vertex -0.09825836758759442 0.03941728586986428 0
    vertex -0.03097142245493091 0.0007116736924787853 0
  endloop
endfacet
facet normal -0 0 1
  outer loop
    vertex 0.03807377124993026 -0.04181285200473173 0
    vertex 0.1070378807133901 -0.08380317633056483 0
    vertex 0.1062088312742031 -0.002515231840056366 0
  endloop
endfacet
facet normal 0 0 1
  outer loop
    vertex 0.04002922535326135 0.03987516849053811 0
    vertex 0.04002136325327317 0.1150714277229864 0
    vertex -0.02882761405332447 0.08064024998536554 0
  endloop
endfacet
facet normal 0 0 1
  outer loop
    vertex 0.1062088312742031 -0.002515231840056366 0
    vertex 0.1018160542600638 0.07108771462944863 0
    vertex 0.04002922535326135 0.03987516849053811 0
  endloop
endfacet
facet normal 0 0 1
  outer loop
    vertex 0.03807377124993026 -0.04181285200473173 0
    vertex 0.1062088312742031 -0.002515231840056366 0
    vertex 0.04002922535326135 0.03987516849053811 0
  endloop
endfacet
facet normal 0 0 1
  outer loop
    vertex 0.04002922535326135 0.03987516849053811 0
    vertex -0.02882761405332447 0.08064024998536554 0
    vertex -0.03097142245493091 0.0007116736924787853 0
  endloop
endfacet
facet normal 0 -0 1
  outer loop
    vertex 0.03807377124993026 -0.04181285200473173 0
    vertex 0.04002922535326135 0.03987516849053811 0
    vertex -0.03097142245493091 0.0007116736924787853 0
  endloop
endfacet
facet normal 0 0 1
  outer loop
    vertex -0.03337645692536129 -0.08066535754856144 0
    vertex 0.03807377124993026 -0.04181285200473173 0
    vertex -0.03097142245493091 0.0007116736924787853 0
  endloop
endfacet
facet normal 0 -0 1
  outer loop
    vertex -0.03337645692536129 -0.08066535754856144 0
    vertex -0.03097142245493091 0.0007116736924787853 0
    vertex -0.09883646014699121 -0.03854866670200895 0
  endloop
endfacet
facet normal 0 0 1
  outer loop
    vertex -0.03337645692536129 -0.08066535754856144 0
    vertex -0.09883646014699121 -0.03854866670200895 0
    vertex -0.09985063769024359 -0.1198097028660097 0
  endloop
endfacet
facet normal 0 0 1
  outer loop
    vertex -0.0373255844142284 -0.1584702707223673 0
    vertex 0.03391595906221707 -0.116786566227154 0
    vertex -0.03337645692536129 -0.08066535754856144 0
  endloop
endfacet
facet normal 0 -0 1
  outer loop
    vertex -0.03564449652762194 0.1568193468938448 0
    vertex 0.04279460902620939 0.1881995388452076 0
    vertex -0.03706777338351622 0.2286306765098975 0
  endloop
endfacet
facet normal -0 0 1
  outer loop
    vertex -0.1730040966344603 0.2450909679031325 0
    vertex -0.1054372381945055 0.2011640481846112 0
    vertex -0.100463883651296 0.2826782766356461 0
  endloop
endfacet
facet normal 0 0 1
  outer loop
    vertex -0.100463883651296 0.2826782766356461 0
    vertex -0.1054372381945055 0.2011640481846112 0
    vertex -0.03706777338351622 0.2286306765098975 0
  endloop
endfacet
facet normal 0 0 1
  outer loop
    vertex 0.04279460902620939 0.1881995388452076 0
    vertex 0.09368118453585873 0.1348508919692623 0
    vertex 0.1310824949238431 0.1861985736770066 0
  endloop
endfacet
facet normal 0 -0 1
  outer loop
    vertex -0.0373255844142284 -0.1584702707223673 0
    vertex -0.03337645692536129 -0.08066535754856144 0
    vertex -0.09985063769024359 -0.1198097028660097 0
  endloop
endfacet
facet normal 0 0 1
  outer loop
    vertex 0.2274278252482852 0.02791355515975007 0
    vertex 0.1639928050832908 0.03940970371217272 0
    vertex 0.1794788648870723 -0.04506032825799493 0
  endloop
endfacet
facet normal 0 0 1
  outer loop
    vertex -0.09825836758759442 0.03941728586986428 0
    vertex -0.1733257835138403 -0.0009934949537518869 0
    vertex -0.09883646014699121 -0.03854866670200895 0
  endloop
endfacet
facet normal 0 0 1
  outer loop
    vertex 0.03391595906221707 -0.116786566227154 0
    vertex 0.02236989625802199 -0.1846407552513891 0
    vertex 0.09777486639016833 -0.1565706194313823 0
  endloop
endfacet
facet normal 0 0 1
  outer loop
    vertex -0.0373255844142284 -0.1584702707223673 0
    vertex -0.09985063769024359 -0.1198097028660097 0
    vertex -0.1041824259206327 -0.2010629550300354 0
  endloop
endfacet
facet normal 0 0 1
  outer loop
    vertex -0.1041824259206327 -0.2010629550300354 0
    vertex -0.1630654421368754 -0.1593893851798391 0
    vertex -0.1730040966344601 -0.2450909679031326 0
  endloop
endfacet
facet normal 0 -0 1
  outer loop
    vertex -0.1730040966344601 -0.2450909679031326 0
    vertex -0.1630654421368754 -0.1593893851798391 0
    vertex -0.2327133872113259 -0.1893263832978158 0
  endloop
endfacet
facet normal 0 0 1
  outer loop
    vertex -0.04080963070278901 -0.2318382303166939 0
    vertex 0.02236989625802199 -0.1846407552513891 0
    vertex -0.0373255844142284 -0.1584702707223673 0
  endloop
endfacet
facet normal 0 0 1
  outer loop
    vertex 0.09777486639016833 -0.1565706194313823 0
    vertex 0.02236989625802199 -0.1846407552513891 0
    vertex 0.08147094710807257 -0.2240116426100298 0
  endloop
endfacet
facet normal 0 0 1
  outer loop
    vertex 0.1310824949238431 0.1861985736770066 0
    vertex 0.09368118453585873 0.1348508919692623 0
    vertex 0.1526914012159042 0.1136972049716626 0
  endloop
endfacet
facet normal 0 0 1
  outer loop
    vertex 0.1310824949238431 0.1861985736770066 0
    vertex 0.1526914012159042 0.1136972049716626 0
    vertex 0.1964821131707245 0.1519305068399771 0
  endloop
endfacet
facet normal 0 0 1
  outer loop
    vertex -0.02882761405332447 0.08064024998536554 0
    vertex -0.03564449652762194 0.1568193468938448 0
    vertex -0.1132018271014532 0.1184540600820546 0
  endloop
endfacet
facet normal 0 0 1
  outer loop
    vertex -0.2239495709994037 0.05702491620795406 0
    vertex -0.2425379726519966 -0.0009040280926949682 0
    vertex -0.1733257835138403 -0.0009934949537518869 0
  endloop
endfacet
facet normal 0 -0 1
  outer loop
    vertex -0.1733257835138403 -0.0009934949537518869 0
    vertex -0.1599261274128771 0.06511209658972615 0
    vertex -0.2239495709994037 0.05702491620795406 0
  endloop
endfacet
facet normal 0 0 1
  outer loop
    vertex 0.1310824949238431 0.1861985736770066 0
    vertex 0.0834412892674848 0.2395003227849714 0
    vertex 0.04279460902620939 0.1881995388452076 0
  endloop
endfacet
facet normal 0 0 1
  outer loop
    vertex 0.1070378807133901 -0.08380317633056483 0
    vertex 0.09777486639016833 -0.1565706194313823 0
    vertex 0.1748074522594587 -0.1367177542959085 0
  endloop
endfacet
facet normal 0 -0 1
  outer loop
    vertex 0.01863006209195811 -0.2452397405886131 0
    vertex 0.02236989625802199 -0.1846407552513891 0
    vertex -0.04080963070278901 -0.2318382303166939 0
  endloop
endfacet
facet normal 0 0 1
  outer loop
    vertex -0.1054372381945055 0.2011640481846112 0
    vertex -0.1635682239682726 0.1743392066793236 0
    vertex -0.1132018271014532 0.1184540600820546 0
  endloop
endfacet
facet normal 0 0 1
  outer loop
    vertex 0.1794788648870723 -0.04506032825799493 0
    vertex 0.1639928050832908 0.03940970371217272 0
    vertex 0.1062088312742031 -0.002515231840056366 0
  endloop
endfacet
facet normal 0 0 1
  outer loop
    vertex 0.04279460902620939 0.1881995388452076 0
    vertex 0.02176326391935587 0.2521205844534966 0
    vertex -0.03706777338351622 0.2286306765098975 0
  endloop
endfacet
facet normal 0 0 1
  outer loop
    vertex -0.1132018271014532 0.1184540600820546 0
    vertex -0.1599261274128771 0.06511209658972615 0
    vertex -0.09825836758759442 0.03941728586986428 0
  endloop
endfacet
facet normal 0 0 1
  outer loop
    vertex -0.1733257835138403 -0.0009934949537518869 0
    vertex -0.1584357891411011 -0.08107124752252509 0
    vertex -0.09883646014699121 -0.03854866670200895 0
  endloop
endfacet
facet normal -0 0 1
  outer loop
    vertex -0.2210029411249406 -0.06055156171767693 0
    vertex -0.1584357891411011 -0.08107124752252509 0
    vertex -0.1733257835138403 -0.0009934949537518869 0
  endloop
endfacet
facet normal 0 0 1
  outer loop
    vertex 0.04002136325327317 0.1150714277229864 0
    vertex 0.09368118453585873 0.1348508919692623 0
    vertex 0.04279460902620939 0.1881995388452076 0
  endloop
endfacet
facet normal 0 -0 1
  outer loop
    vertex 0.04002136325327317 0.1150714277229864 0
    vertex 0.04279460902620939 0.1881995388452076 0
    vertex -0.03564449652762194 0.1568193468938448 0
  endloop
endfacet
facet normal 0 0 1
  outer loop
    vertex 0.1794788648870723 -0.04506032825799493 0
    vertex 0.2440398458926351 -0.03523241134622667 0
    vertex 0.2274278252482852 0.02791355515975007 0
  endloop
endfacet
facet normal -0 0 1
  outer loop
    vertex 0.03391595906221707 -0.116786566227154 0
    vertex 0.09777486639016833 -0.1565706194313823 0
    vertex 0.1070378807133901 -0.08380317633056483 0
  endloop
endfacet
facet normal 0 0 1
  outer loop
    vertex 0.2243423357978698 0.09744562777827 0
    vertex 0.1639928050832908 0.03940970371217272 0
    vertex 0.2274278252482852 0.02791355515975007 0
  endloop
endfacet
facet normal 0 0 1
  outer loop
    vertex 0.2243423357978698 0.09744562777827 0
    vertex 0.1526914012159042 0.1136972049716626 0
    vertex 0.1639928050832908 0.03940970371217272 0
  endloop
endfacet
facet normal 0 0 1
  outer loop
    vertex -0.09985063769024359 -0.1198097028660097 0
    vertex -0.1630654421368754 -0.1593893851798391 0
    vertex -0.1041824259206327 -0.2010629550300354 0
  endloop
endfacet
facet normal 0 0 1
  outer loop
    vertex 0.04002136325327317 0.1150714277229864 0
    vertex -0.03564449652762194 0.1568193468938448 0
    vertex -0.02882761405332447 0.08064024998536554 0
  endloop
endfacet
facet normal 0 0 1
  outer loop
    vertex -0.09985063769024359 -0.1198097028660097 0
    vertex -0.1584357891411011 -0.08107124752252509 0
    vertex -0.1630654421368754 -0.1593893851798391 0
  endloop
endfacet
facet normal 0 -0 1
  outer loop
    vertex -0.04080963070278901 -0.2318382303166939 0
    vertex -0.0373255844142284 -0.1584702707223673 0
    vertex -0.1041824259206327 -0.2010629550300354 0
  endloop
endfacet
facet normal 0 0 1
  outer loop
    vertex -0.1584357891411011 -0.08107124752252509 0
    vertex -0.2117526345425051 -0.1223150458347194 0
    vertex -0.1630654421368754 -0.1593893851798391 0
  endloop
endfacet
facet normal 0 0 1
  outer loop
    vertex -0.1733257835138403 -0.0009934949537518869 0
    vertex -0.2425379726519966 -0.0009040280926949682 0
    vertex -0.2210029411249406 -0.06055156171767693 0
  endloop
endfacet
facet normal 0 0 1
  outer loop
    vertex 0.2888751862043398 -0.08093903134710731 0
    vertex 0.2261007534896311 -0.09304361576724278 0
    vertex 0.2563258213639464 -0.1558751850106303 0
  endloop
endfacet
facet normal 0 0 1
  outer loop
    vertex 0.2563258213639464 -0.1558751850106303 0
    vertex 0.2261007534896311 -0.09304361576724278 0
    vertex 0.1748074522594587 -0.1367177542959085 0
  endloop
endfacet
facet normal 0 0 1
  outer loop
    vertex -0.02047272400940114 -0.2993006307571618 0
    vertex -0.04080963070278901 -0.2318382303166939 0
    vertex -0.1004638836512959 -0.2826782766356461 0
  endloop
endfacet
facet normal 0 0 1
  outer loop
    vertex 0.08147094710807257 -0.2240116426100298 0
    vertex 0.01863006209195811 -0.2452397405886131 0
    vertex 0.06103680391578999 -0.2937252263046969 0
  endloop
endfacet
facet normal 0 -0 1
  outer loop
    vertex -0.1004638836512959 -0.2826782766356461 0
    vertex -0.04080963070278901 -0.2318382303166939 0
    vertex -0.1041824259206327 -0.2010629550300354 0
  endloop
endfacet
facet normal 0 0 1
  outer loop
    vertex 0.2563258213639464 0.1558751850106302 0
    vertex 0.2243423357978698 0.09744562777827 0
    vertex 0.2888751862043398 0.08093903134710737 0
  endloop
endfacet
facet normal 0 0 1
  outer loop
    vertex -0.2972057838108992 0.04084999472887386 0
    vertex -0.2239495709994037 0.05702491620795406 0
    vertex -0.275163390451636 0.1195203269538723 0
  endloop
endfacet
facet normal 0 0 1
  outer loop
    vertex 0.2047659429655961 0.2192507892834373 0
    vertex 0.1964821131707245 0.1519305068399771 0
    vertex 0.2563258213639464 0.1558751850106302 0
  endloop
endfacet
facet normal 0 0 1
  outer loop
    vertex 0.06103680391578999 -0.2937252263046969 0
    vertex 0.01863006209195811 -0.2452397405886131 0
    vertex -0.02047272400940114 -0.2993006307571618 0
  endloop
endfacet
facet normal 0 0 1
  outer loop
    vertex 0.2888751862043398 0.08093903134710737 0
    vertex 0.2243423357978698 0.09744562777827 0
    vertex 0.2274278252482852 0.02791355515975007 0
  endloop
endfacet
facet normal -0 0 1
  outer loop
    vertex 0.1310824949238431 0.1861985736770066 0
    vertex 0.1964821131707245 0.1519305068399771 0
    vertex 0.2047659429655961 0.2192507892834373 0
  endloop
endfacet
facet normal 0 0 1
  outer loop
    vertex -0.275163390451636 0.1195203269538723 0
    vertex -0.2239495709994037 0.05702491620795406 0
    vertex -0.1934845706996181 0.1176605739290039 0
  endloop
endfacet
facet normal 0 0 1
  outer loop
    vertex -0.2972057838108992 -0.04084999472887392 0
    vertex -0.2425379726519966 -0.0009040280926949682 0
    vertex -0.2972057838108992 0.04084999472887386 0
  endloop
endfacet
facet normal 0 0 1
  outer loop
    vertex -0.2210029411249406 -0.06055156171767693 0
    vertex -0.2425379726519966 -0.0009040280926949682 0
    vertex -0.2972057838108992 -0.04084999472887392 0
  endloop
endfacet
facet normal 0 0 1
  outer loop
    vertex 0.2274278252482852 0.02791355515975007 0
    vertex 0.2440398458926351 -0.03523241134622667 0
    vertex 0.3 0 0
  endloop
endfacet
facet normal 0 -0 1
  outer loop
    vertex 0.1380195113193455 -0.2663655655207127 0
    vertex 0.1406888717153637 -0.2015565538318484 0
    vertex 0.08147094710807257 -0.2240116426100298 0
  endloop
endfacet
facet normal 0 0 1
  outer loop
    vertex 0.1748074522594587 -0.1367177542959085 0
    vertex 0.1406888717153637 -0.2015565538318484 0
    vertex 0.2047659429655963 -0.2192507892834372 0
  endloop
endfacet
facet normal 0 -0 1
  outer loop
    vertex -0.2327133872113259 -0.1893263832978158 0
    vertex -0.2117526345425051 -0.1223150458347194 0
    vertex -0.2751633904516358 -0.1195203269538725 0
  endloop
endfacet
facet normal -0 0 1
  outer loop
    vertex -0.232713387211326 0.1893263832978158 0
    vertex -0.1635682239682726 0.1743392066793236 0
    vertex -0.1730040966344603 0.2450909679031325 0
  endloop
endfacet
facet normal 0 0 1
  outer loop
    vertex 0.1380195113193455 0.2663655655207127 0
    vertex 0.0834412892674848 0.2395003227849714 0
    vertex 0.1310824949238431 0.1861985736770066 0
  endloop
endfacet
facet normal 0 0 1
  outer loop
    vertex -0.03706777338351622 0.2286306765098975 0
    vertex 0.02176326391935587 0.2521205844534966 0
    vertex -0.02047272400940146 0.2993006307571617 0
  endloop
endfacet
facet normal 0 0 1
  outer loop
    vertex 0.3 0 0
    vertex 0.2440398458926351 -0.03523241134622667 0
    vertex 0.2888751862043398 -0.08093903134710731 0
  endloop
endfacet
facet normal 0 0 1
  outer loop
    vertex -0.09883646014699121 -0.03854866670200895 0
    vertex -0.1584357891411011 -0.08107124752252509 0
    vertex -0.09985063769024359 -0.1198097028660097 0
  endloop
endfacet
facet normal 0 -0 1
  outer loop
    vertex 0.1062088312742031 -0.002515231840056366 0
    vertex 0.1639928050832908 0.03940970371217272 0
    vertex 0.1018160542600638 0.07108771462944863 0
  endloop
endfacet
facet normal 0 0 1
  outer loop
    vertex 0.2047659429655963 -0.2192507892834372 0
    vertex 0.1406888717153637 -0.2015565538318484 0
    vertex 0.1380195113193455 -0.2663655655207127 0
  endloop
endfacet
facet normal -0 0 1
  outer loop
    vertex -0.2751633904516358 -0.1195203269538725 0
    vertex -0.2117526345425051 -0.1223150458347194 0
    vertex -0.2210029411249406 -0.06055156171767693 0
  endloop
endfacet
facet normal 0 -0 1
  outer loop
    vertex -0.1934845706996181 0.1176605739290039 0
    vertex -0.1635682239682726 0.1743392066793236 0
    vertex -0.232713387211326 0.1893263832978158 0
  endloop
endfacet
facet normal -0 0 1
  outer loop
    vertex -0.0373255844142284 -0.1584702707223673 0
    vertex 0.02236989625802199 -0.1846407552513891 0
    vertex 0.03391595906221707 -0.116786566227154 0
  endloop
endfacet
facet normal 0 0 1
  outer loop
    vertex 0.06103680391578993 0.2937252263046969 0
    vertex 0.0834412892674848 0.2395003227849714 0
    vertex 0.1380195113193455 0.2663655655207127 0
  endloop
endfacet
facet normal 0 0 1
  outer loop
    vertex -0.02047272400940146 0.2993006307571617 0
    vertex 0.02176326391935587 0.2521205844534966 0
    vertex 0.06103680391578993 0.2937252263046969 0
  endloop
endfacet
facet normal 0 0 1
  outer loop
    vertex 0.1018160542600638 0.07108771462944863 0
    vertex 0.09368118453585873 0.1348508919692623 0
    vertex 0.04002136325327317 0.1150714277229864 0
  endloop
endfacet
facet normal 0 0 1
  outer loop
    vertex -0.09825836758759442 0.03941728586986428 0
    vertex -0.1599261274128771 0.06511209658972615 0
    vertex -0.1733257835138403 -0.0009934949537518869 0
  endloop
endfacet
facet normal 0 0 1
  outer loop
    vertex -0.1730040966344603 0.2450909679031325 0
    vertex -0.1635682239682726 0.1743392066793236 0
    vertex -0.1054372381945055 0.2011640481846112 0
  endloop
endfacet
facet normal 0 0 1
  outer loop
    vertex -0.2239495709994037 0.05702491620795406 0
    vertex -0.1599261274128771 0.06511209658972615 0
    vertex -0.1934845706996181 0.1176605739290039 0
  endloop
endfacet
facet normal 0 0 1
  outer loop
    vertex -0.1630654421368754 -0.1593893851798391 0
    vertex -0.2117526345425051 -0.1223150458347194 0
    vertex -0.2327133872113259 -0.1893263832978158 0
  endloop
endfacet
facet normal 0 0 1
  outer loop
    vertex -0.2210029411249406 -0.06055156171767693 0
    vertex -0.2117526345425051 -0.1223150458347194 0
    vertex -0.1584357891411011 -0.08107124752252509 0
  endloop
endfacet
facet normal 0 0 1
  outer loop
    vertex 0.08147094710807257 -0.2240116426100298 0
    vertex 0.1406888717153637 -0.2015565538318484 0
    vertex 0.09777486639016833 -0.1565706194313823 0
  endloop
endfacet
facet normal -0 0 1
  outer loop
    vertex 0.09777486639016833 -0.1565706194313823 0
    vertex 0.1406888717153637 -0.2015565538318484 0
    vertex 0.1748074522594587 -0.1367177542959085 0
  endloop
endfacet
facet normal 0 0 1
  outer loop
    vertex 0.1526914012159042 0.1136972049716626 0
    vertex 0.09368118453585873 0.1348508919692623 0
    vertex 0.1018160542600638 0.07108771462944863 0
  endloop
endfacet
facet normal 0 -0 1
  outer loop
    vertex -0.02047272400940114 -0.2993006307571618 0
    vertex 0.01863006209195811 -0.2452397405886131 0
    vertex -0.04080963070278901 -0.2318382303166939 0
  endloop
endfacet
facet normal 0 0 1
  outer loop
    vertex 0.2563258213639464 0.1558751850106302 0
    vertex 0.1964821131707245 0.1519305068399771 0
    vertex 0.2243423357978698 0.09744562777827 0
  endloop
endfacet
facet normal -0 0 1
  outer loop
    vertex -0.2972057838108992 0.04084999472887386 0
    vertex -0.2425379726519966 -0.0009040280926949682 0
    vertex -0.2239495709994037 0.05702491620795406 0
  endloop
endfacet
facet normal 0 -0 1
  outer loop
    vertex 0.2261007534896311 -0.09304361576724278 0
    vertex 0.2440398458926351 -0.03523241134622667 0
    vertex 0.1794788648870723 -0.04506032825799493 0
  endloop
endfacet
facet normal 0 0 1
  outer loop
    vertex 0.2888751862043398 -0.08093903134710731 0
    vertex 0.2440398458926351 -0.03523241134622667 0
    vertex 0.2261007534896311 -0.09304361576724278 0
  endloop
endfacet
facet normal 0 0 1
  outer loop
    vertex 0.08147094710807257 -0.2240116426100298 0
    vertex 0.02236989625802199 -0.1846407552513891 0
    vertex 0.01863006209195811 -0.2452397405886131 0
  endloop
endfacet
facet normal 0 0 1
  outer loop
    vertex 0.0834412892674848 0.2395003227849714 0
    vertex 0.02176326391935587 0.2521205844534966 0
    vertex 0.04279460902620939 0.1881995388452076 0
  endloop
endfacet
facet normal 0 0 1
  outer loop
    vertex 0.06103680391578993 0.2937252263046969 0
    vertex 0.02176326391935587 0.2521205844534966 0
    vertex 0.0834412892674848 0.2395003227849714 0
  endloop
endfacet
facet normal 0 0 1
  outer loop
    vertex 0.1639928050832908 0.03940970371217272 0
    vertex 0.1526914012159042 0.1136972049716626 0
    vertex 0.1018160542600638 0.07108771462944863 0
  endloop
endfacet
facet normal 0 0 1
  outer loop
    vertex 0.1964821131707245 0.1519305068399771 0
    vertex 0.1526914012159042 0.1136972049716626 0
    vertex 0.2243423357978698 0.09744562777827 0
  endloop
endfacet
endsolid Created by Gmsh
