solid Created by Gmsh
facet normal 0 0 1
  outer loop
    vertex -0.007846718834521177 0.01230011916193205 0
    vertex -0.00968815888997983 0.02018579056253722 0
    vertex -0.01551264018282445 0.01641379366126419 0
  endloop
endfacet
facet normal 0 -0 1
  outer loop
    vertex -0.007846718834521177 0.01230011916193205 0
    vertex -0.00349406453796325 0.01679952109879574 0
    vertex -0.00968815888997983 0.02018579056253722 0
  endloop
endfacet
facet normal 0 -0 1
  outer loop
    vertex -0.02751633904516369 -0.011952032695387 0
    vertex -0.02078666253055485 -0.007528485441396248 0
    vertex -0.02972057838108996 -0.004084999472887155 0
  endloop
endfacet
facet normal -0 0 1
  outer loop
    vertex -0.02972057838108996 -0.004084999472887155 0
    vertex -0.02078666253055485 -0.007528485441396248 0
    vertex -0.02228545265282817 -0.0001970755068895343 0
  endloop
endfacet
facet normal 0 -0 1
  outer loop
    vertex 0.01510235805607387 0.006353832198807841 0
    vertex 0.01768527843208152 0.01425003270129772 0
    vertex 0.009517071467915771 0.01296295934783071 0
  endloop
endfacet
facet normal 0 0 1
  outer loop
    vertex -0.02228545265282817 -0.0001970755068895343 0
    vertex -0.02078666253055485 -0.007528485441396248 0
    vertex -0.01355353765681265 -0.003263261204241243 0
  endloop
endfacet
facet normal 0 0 1
  outer loop
    vertex 0.009517071467915771 0.01296295934783071 0
    vertex 0.01768527843208152 0.01425003270129772 0
    vertex 0.01250853585949 0.01949333626491005 0
  endloop
endfacet
facet normal 0 0 1
  outer loop
    vertex -0.01355353765681265 -0.003263261204241243 0
    vertex -0.01724869810456537 0.004659924119464684 0
    vertex -0.02228545265282817 -0.0001970755068895343 0
  endloop
endfacet
facet normal 0 0 1
  outer loop
    vertex 0.02243423357978701 0.003083514431414026 0
    vertex 0.02194839416495421 0.009473760193458658 0
    vertex 0.01510235805607387 0.006353832198807841 0
  endloop
endfacet
facet normal 0 0 1
  outer loop
    vertex -0.01551264018282445 0.01641379366126419 0
    vertex -0.01399329001913846 0.009782805816618384 0
    vertex -0.007846718834521177 0.01230011916193205 0
  endloop
endfacet
facet normal 0 0 1
  outer loop
    vertex 0.01510235805607387 0.006353832198807841 0
    vertex 0.01726343721927179 -0.0004014866333292329 0
    vertex 0.02243423357978701 0.003083514431414026 0
  endloop
endfacet
facet normal -0 0 1
  outer loop
    vertex -0.01355353765681265 -0.003263261204241243 0
    vertex -0.008046212077283612 -0.009770006817365392 0
    vertex -0.005157999540298394 -0.00231831870272532 0
  endloop
endfacet
facet normal 0 0 1
  outer loop
    vertex -0.005157999540298394 -0.00231831870272532 0
    vertex -0.008046212077283612 -0.009770006817365392 0
    vertex -0.0001523902864033165 -0.008728439439778796 0
  endloop
endfacet
facet normal 0 -0 1
  outer loop
    vertex 0.01058279919313755 -0.0003009222305551742 0
    vertex 0.01510235805607387 0.006353832198807841 0
    vertex 0.005857019192278733 0.0062467393301316 0
  endloop
endfacet
facet normal 0 0 1
  outer loop
    vertex 0.002869067842906928 -0.001169333261742193 0
    vertex 0.01058279919313755 -0.0003009222305551742 0
    vertex 0.005857019192278733 0.0062467393301316 0
  endloop
endfacet
facet normal 0 0 1
  outer loop
    vertex -0.002082872691238179 0.005252057559674668 0
    vertex -0.007846718834521177 0.01230011916193205 0
    vertex -0.009713042097119387 0.004190896197962637 0
  endloop
endfacet
facet normal 0 0 1
  outer loop
    vertex 0.006103680391578738 -0.02937252263046974 0
    vertex 0.001545359806098455 -0.02259236066972363 0
    vertex -0.002047272400940486 -0.02993006307571615 0
  endloop
endfacet
facet normal -0 0 1
  outer loop
    vertex -0.0232713387211325 0.0189326383297817 0
    vertex -0.01551264018282445 0.01641379366126419 0
    vertex -0.0173004096634459 0.02450909679031334 0
  endloop
endfacet
facet normal 0 0 1
  outer loop
    vertex 0.0138019511319346 0.02663655655207123 0
    vertex 0.01250853585949 0.01949333626491005 0
    vertex 0.02047659429655965 0.0219250789283437 0
  endloop
endfacet
facet normal 0 -0 1
  outer loop
    vertex -0.01730040966344628 -0.02450909679031307 0
    vertex -0.01545651950232041 -0.01654989131189602 0
    vertex -0.02327133872113279 -0.01893263832978135 0
  endloop
endfacet
facet normal 0 0 1
  outer loop
    vertex 0.02888751862043398 0.008093903134710716 0
    vertex 0.02243423357978701 0.003083514431414026 0
    vertex 0.03 0 0
  endloop
endfacet
facet normal -0 0 1
  outer loop
    vertex -0.01004638836512947 0.02826782766356465 0
    vertex -0.003817255031034861 0.02321799981725872 0
    vertex -0.00204727240094004 0.02993006307571618 0
  endloop
endfacet
facet normal 0 0 1
  outer loop
    vertex 0.02563258213639459 -0.01558751850106312 0
    vertex 0.0178581651939461 -0.01435877458079023 0
    vertex 0.02047659429655951 -0.02192507892834383 0
  endloop
endfacet
facet normal 0 0 1
  outer loop
    vertex -0.02972057838108996 -0.004084999472887155 0
    vertex -0.02228545265282817 -0.0001970755068895343 0
    vertex -0.02972057838108989 0.004084999472887611 0
  endloop
endfacet
facet normal 0 0 1
  outer loop
    vertex 0.0009137375255584646 0.01214875575888631 0
    vertex -0.007846718834521177 0.01230011916193205 0
    vertex -0.002082872691238179 0.005252057559674668 0
  endloop
endfacet
facet normal 0 0 1
  outer loop
    vertex -0.009713042097119387 0.004190896197962637 0
    vertex -0.01355353765681265 -0.003263261204241243 0
    vertex -0.005157999540298394 -0.00231831870272532 0
  endloop
endfacet
facet normal 0 0 1
  outer loop
    vertex 0.005857019192278733 0.0062467393301316 0
    vertex 0.0009137375255584646 0.01214875575888631 0
    vertex -0.002082872691238179 0.005252057559674668 0
  endloop
endfacet
facet normal 0 0 1
  outer loop
    vertex -0.002082872691238179 0.005252057559674668 0
    vertex -0.009713042097119387 0.004190896197962637 0
    vertex -0.005157999540298394 -0.00231831870272532 0
  endloop
endfacet
facet normal 0 -0 1
  outer loop
    vertex 0.002869067842906928 -0.001169333261742193 0
    vertex 0.005857019192278733 0.0062467393301316 0
    vertex -0.002082872691238179 0.005252057559674668 0
  endloop
endfacet
facet normal 0 0 1
  outer loop
    vertex 0.002869067842906928 -0.001169333261742193 0
    vertex -0.002082872691238179 0.005252057559674668 0
    vertex -0.005157999540298394 -0.00231831870272532 0
  endloop
endfacet
facet normal 0 -0 1
  outer loop
    vertex 0.007529372351930796 -0.007474305031637737 0
    vertex 0.01058279919313755 -0.0003009222305551742 0
    vertex 0.002869067842906928 -0.001169333261742193 0
  endloop
endfacet
facet normal 0 0 1
  outer loop
    vertex 0.002869067842906928 -0.001169333261742193 0
    vertex -0.005157999540298394 -0.00231831870272532 0
    vertex -0.0001523902864033165 -0.008728439439778796 0
  endloop
endfacet
facet normal 0 0 1
  outer loop
    vertex 0.007529372351930796 -0.007474305031637737 0
    vertex 0.002869067842906928 -0.001169333261742193 0
    vertex -0.0001523902864033165 -0.008728439439778796 0
  endloop
endfacet
facet normal 0 0 1
  outer loop
    vertex -0.0001523902864033165 -0.008728439439778796 0
    vertex -0.008046212077283612 -0.009770006817365392 0
    vertex -0.002889928070399584 -0.01602212767689596 0
  endloop
endfacet
facet normal 0 -0 1
  outer loop
    vertex 0.004385181715604366 -0.01496714163763495 0
    vertex 0.007529372351930796 -0.007474305031637737 0
    vertex -0.0001523902864033165 -0.008728439439778796 0
  endloop
endfacet
facet normal 0 0 1
  outer loop
    vertex 0.01250853585949 0.01949333626491005 0
    vertex 0.00394014958181131 0.01957726140549945 0
    vertex 0.009517071467915771 0.01296295934783071 0
  endloop
endfacet
facet normal 0 0 1
  outer loop
    vertex 0.02047659429655965 0.0219250789283437 0
    vertex 0.01768527843208152 0.01425003270129772 0
    vertex 0.02563258213639467 0.01558751850106298 0
  endloop
endfacet
facet normal -0 0 1
  outer loop
    vertex 0.01250853585949 0.01949333626491005 0
    vertex 0.01768527843208152 0.01425003270129772 0
    vertex 0.02047659429655965 0.0219250789283437 0
  endloop
endfacet
facet normal 0 0 1
  outer loop
    vertex -0.003817255031034861 0.02321799981725872 0
    vertex -0.00349406453796325 0.01679952109879574 0
    vertex 0.00394014958181131 0.01957726140549945 0
  endloop
endfacet
facet normal 0 0 1
  outer loop
    vertex 0.004385181715604366 -0.01496714163763495 0
    vertex -0.0001523902864033165 -0.008728439439778796 0
    vertex -0.002889928070399584 -0.01602212767689596 0
  endloop
endfacet
facet normal -0 0 1
  outer loop
    vertex -0.00968815888997983 0.02018579056253722 0
    vertex -0.00349406453796325 0.01679952109879574 0
    vertex -0.003817255031034861 0.02321799981725872 0
  endloop
endfacet
facet normal 0 0 1
  outer loop
    vertex 0.007529372351930796 -0.007474305031637737 0
    vertex 0.01585812306510155 -0.006997145670337229 0
    vertex 0.01058279919313755 -0.0003009222305551742 0
  endloop
endfacet
facet normal 0 -0 1
  outer loop
    vertex 0.001545359806098455 -0.02259236066972363 0
    vertex 0.004385181715604366 -0.01496714163763495 0
    vertex -0.002889928070399584 -0.01602212767689596 0
  endloop
endfacet
facet normal 0 -0 1
  outer loop
    vertex 0.006103680391578738 -0.02937252263046974 0
    vertex 0.008606456164735351 -0.02111591952905451 0
    vertex 0.001545359806098455 -0.02259236066972363 0
  endloop
endfacet
facet normal 0 0 1
  outer loop
    vertex 0.01380195113193436 -0.02663655655207136 0
    vertex 0.008606456164735351 -0.02111591952905451 0
    vertex 0.006103680391578738 -0.02937252263046974 0
  endloop
endfacet
facet normal 0 0 1
  outer loop
    vertex -0.002889928070399584 -0.01602212767689596 0
    vertex -0.009244746680683792 -0.01595477714579524 0
    vertex -0.005493354913533546 -0.02289032463157087 0
  endloop
endfacet
facet normal 0 0 1
  outer loop
    vertex 0.01510235805607387 0.006353832198807841 0
    vertex 0.009517071467915771 0.01296295934783071 0
    vertex 0.005857019192278733 0.0062467393301316 0
  endloop
endfacet
facet normal 0 -0 1
  outer loop
    vertex 0.02243423357978695 -0.009744562777827056 0
    vertex 0.02281292434406354 -0.003692263964131712 0
    vertex 0.01585812306510155 -0.006997145670337229 0
  endloop
endfacet
facet normal 0 0 1
  outer loop
    vertex 0.02281292434406354 -0.003692263964131712 0
    vertex 0.01726343721927179 -0.0004014866333292329 0
    vertex 0.01585812306510155 -0.006997145670337229 0
  endloop
endfacet
facet normal 0 0 1
  outer loop
    vertex -0.009713042097119387 0.004190896197962637 0
    vertex -0.01724869810456537 0.004659924119464684 0
    vertex -0.01355353765681265 -0.003263261204241243 0
  endloop
endfacet
facet normal 0 0 1
  outer loop
    vertex 0.00394014958181131 0.01957726140549945 0
    vertex 0.001948522752560474 0.02537108805127139 0
    vertex -0.003817255031034861 0.02321799981725872 0
  endloop
endfacet
facet normal 0 0 1
  outer loop
    vertex -0.005493354913533546 -0.02289032463157087 0
    vertex -0.009244746680683792 -0.01595477714579524 0
    vertex -0.01150828382502279 -0.02163438350862794 0
  endloop
endfacet
facet normal 0 0 1
  outer loop
    vertex 0.01510235805607387 0.006353832198807841 0
    vertex 0.02194839416495421 0.009473760193458658 0
    vertex 0.01768527843208152 0.01425003270129772 0
  endloop
endfacet
facet normal 0 0 1
  outer loop
    vertex 0.01250853585949 0.01949333626491005 0
    vertex 0.008312096995849573 0.02404797980791567 0
    vertex 0.00394014958181131 0.01957726140549945 0
  endloop
endfacet
facet normal -0 0 1
  outer loop
    vertex 0.01058279919313755 -0.0003009222305551742 0
    vertex 0.01726343721927179 -0.0004014866333292329 0
    vertex 0.01510235805607387 0.006353832198807841 0
  endloop
endfacet
facet normal -0 0 1
  outer loop
    vertex 0.007529372351930796 -0.007474305031637737 0
    vertex 0.01130199996611396 -0.01374819530912856 0
    vertex 0.01585812306510155 -0.006997145670337229 0
  endloop
endfacet
facet normal 0 0 1
  outer loop
    vertex 0.01585812306510155 -0.006997145670337229 0
    vertex 0.01130199996611396 -0.01374819530912856 0
    vertex 0.0178581651939461 -0.01435877458079023 0
  endloop
endfacet
facet normal 0 0 1
  outer loop
    vertex 0.00394014958181131 0.01957726140549945 0
    vertex -0.00349406453796325 0.01679952109879574 0
    vertex 0.0009137375255584646 0.01214875575888631 0
  endloop
endfacet
facet normal 0 0 1
  outer loop
    vertex 0.009517071467915771 0.01296295934783071 0
    vertex 0.00394014958181131 0.01957726140549945 0
    vertex 0.0009137375255584646 0.01214875575888631 0
  endloop
endfacet
facet normal 0 0 1
  outer loop
    vertex -0.0232713387211325 0.0189326383297817 0
    vertex -0.02018245193412148 0.01121480002304739 0
    vertex -0.01551264018282445 0.01641379366126419 0
  endloop
endfacet
facet normal -0 0 1
  outer loop
    vertex -0.02751633904516352 0.01195203269538741 0
    vertex -0.02018245193412148 0.01121480002304739 0
    vertex -0.0232713387211325 0.0189326383297817 0
  endloop
endfacet
facet normal 0 0 1
  outer loop
    vertex 0.001545359806098455 -0.02259236066972363 0
    vertex 0.008606456164735351 -0.02111591952905451 0
    vertex 0.004385181715604366 -0.01496714163763495 0
  endloop
endfacet
facet normal 0 0 1
  outer loop
    vertex -0.02018245193412148 0.01121480002304739 0
    vertex -0.01724869810456537 0.004659924119464684 0
    vertex -0.01399329001913846 0.009782805816618384 0
  endloop
endfacet
facet normal 0 -0 1
  outer loop
    vertex 0.005857019192278733 0.0062467393301316 0
    vertex 0.009517071467915771 0.01296295934783071 0
    vertex 0.0009137375255584646 0.01214875575888631 0
  endloop
endfacet
facet normal 0 -0 1
  outer loop
    vertex 0.008606456164735351 -0.02111591952905451 0
    vertex 0.01130199996611396 -0.01374819530912856 0
    vertex 0.004385181715604366 -0.01496714163763495 0
  endloop
endfacet
facet normal 0 0 1
  outer loop
    vertex 0.001545359806098455 -0.02259236066972363 0
    vertex -0.002889928070399584 -0.01602212767689596 0
    vertex -0.005493354913533546 -0.02289032463157087 0
  endloop
endfacet
facet normal 0 0 1
  outer loop
    vertex -0.02018245193412148 0.01121480002304739 0
    vertex -0.02357374577562801 0.006288296109927736 0
    vertex -0.01724869810456537 0.004659924119464684 0
  endloop
endfacet
facet normal 0 0 1
  outer loop
    vertex 0.008606456164735351 -0.02111591952905451 0
    vertex 0.01454913437485576 -0.01965515139924178 0
    vertex 0.01130199996611396 -0.01374819530912856 0
  endloop
endfacet
facet normal 0 -0 1
  outer loop
    vertex 0.0178581651939461 -0.01435877458079023 0
    vertex 0.02243423357978695 -0.009744562777827056 0
    vertex 0.01585812306510155 -0.006997145670337229 0
  endloop
endfacet
facet normal 0 0 1
  outer loop
    vertex -0.01545651950232041 -0.01654989131189602 0
    vertex -0.009244746680683792 -0.01595477714579524 0
    vertex -0.01452325378991704 -0.01065573469543648 0
  endloop
endfacet
facet normal 0 0 1
  outer loop
    vertex -0.007846718834521177 0.01230011916193205 0
    vertex -0.01399329001913846 0.009782805816618384 0
    vertex -0.009713042097119387 0.004190896197962637 0
  endloop
endfacet
facet normal -0 0 1
  outer loop
    vertex -0.02751633904516369 -0.011952032695387 0
    vertex -0.02047868869453437 -0.01353413420163437 0
    vertex -0.02078666253055485 -0.007528485441396248 0
  endloop
endfacet
facet normal 0 0 1
  outer loop
    vertex 0.03 0 0
    vertex 0.02281292434406354 -0.003692263964131712 0
    vertex 0.02888751862043396 -0.008093903134710784 0
  endloop
endfacet
facet normal 0 0 1
  outer loop
    vertex -0.002047272400940486 -0.02993006307571615 0
    vertex -0.005493354913533546 -0.02289032463157087 0
    vertex -0.01004638836512992 -0.02826782766356449 0
  endloop
endfacet
facet normal 0 0 1
  outer loop
    vertex 0.001545359806098455 -0.02259236066972363 0
    vertex -0.005493354913533546 -0.02289032463157087 0
    vertex -0.002047272400940486 -0.02993006307571615 0
  endloop
endfacet
facet normal 0 0 1
  outer loop
    vertex 0.02888751862043396 -0.008093903134710784 0
    vertex 0.02243423357978695 -0.009744562777827056 0
    vertex 0.02563258213639459 -0.01558751850106312 0
  endloop
endfacet
facet normal 0 0 1
  outer loop
    vertex 0.02563258213639459 -0.01558751850106312 0
    vertex 0.02243423357978695 -0.009744562777827056 0
    vertex 0.0178581651939461 -0.01435877458079023 0
  endloop
endfacet
facet normal -0 0 1
  outer loop
    vertex -0.0173004096634459 0.02450909679031334 0
    vertex -0.00968815888997983 0.02018579056253722 0
    vertex -0.01004638836512947 0.02826782766356465 0
  endloop
endfacet
facet normal 0 0 1
  outer loop
    vertex -0.01004638836512947 0.02826782766356465 0
    vertex -0.00968815888997983 0.02018579056253722 0
    vertex -0.003817255031034861 0.02321799981725872 0
  endloop
endfacet
facet normal 0 -0 1
  outer loop
    vertex -0.01551264018282445 0.01641379366126419 0
    vertex -0.00968815888997983 0.02018579056253722 0
    vertex -0.0173004096634459 0.02450909679031334 0
  endloop
endfacet
facet normal 0 0 1
  outer loop
    vertex -0.01004638836512992 -0.02826782766356449 0
    vertex -0.01150828382502279 -0.02163438350862794 0
    vertex -0.01730040966344628 -0.02450909679031307 0
  endloop
endfacet
facet normal 0 0 1
  outer loop
    vertex 0.02243423357978701 0.003083514431414026 0
    vertex 0.02281292434406354 -0.003692263964131712 0
    vertex 0.03 0 0
  endloop
endfacet
facet normal 0 0 1
  outer loop
    vertex -0.01730040966344628 -0.02450909679031307 0
    vertex -0.01150828382502279 -0.02163438350862794 0
    vertex -0.01545651950232041 -0.01654989131189602 0
  endloop
endfacet
facet normal 0 0 1
  outer loop
    vertex -0.02972057838108989 0.004084999472887611 0
    vertex -0.02357374577562801 0.006288296109927736 0
    vertex -0.02751633904516352 0.01195203269538741 0
  endloop
endfacet
facet normal 0 0 1
  outer loop
    vertex 0.02047659429655951 -0.02192507892834383 0
    vertex 0.01454913437485576 -0.01965515139924178 0
    vertex 0.01380195113193436 -0.02663655655207136 0
  endloop
endfacet
facet normal 0 0 1
  outer loop
    vertex 0.02563258213639467 0.01558751850106298 0
    vertex 0.02194839416495421 0.009473760193458658 0
    vertex 0.02888751862043398 0.008093903134710716 0
  endloop
endfacet
facet normal 0 0 1
  outer loop
    vertex -0.003817255031034861 0.02321799981725872 0
    vertex 0.001948522752560474 0.02537108805127139 0
    vertex -0.00204727240094004 0.02993006307571618 0
  endloop
endfacet
facet normal 0 -0 1
  outer loop
    vertex -0.02327133872113279 -0.01893263832978135 0
    vertex -0.02047868869453437 -0.01353413420163437 0
    vertex -0.02751633904516369 -0.011952032695387 0
  endloop
endfacet
facet normal 0 0 1
  outer loop
    vertex 0.0138019511319346 0.02663655655207123 0
    vertex 0.008312096995849573 0.02404797980791567 0
    vertex 0.01250853585949 0.01949333626491005 0
  endloop
endfacet
facet normal 0 0 1
  outer loop
    vertex 0.004385181715604366 -0.01496714163763495 0
    vertex 0.01130199996611396 -0.01374819530912856 0
    vertex 0.007529372351930796 -0.007474305031637737 0
  endloop
endfacet
facet normal -0 0 1
  outer loop
    vertex -0.02078666253055485 -0.007528485441396248 0
    vertex -0.01452325378991704 -0.01065573469543648 0
    vertex -0.01355353765681265 -0.003263261204241243 0
  endloop
endfacet
facet normal 0 0 1
  outer loop
    vertex -0.02228545265282817 -0.0001970755068895343 0
    vertex -0.02357374577562801 0.006288296109927736 0
    vertex -0.02972057838108989 0.004084999472887611 0
  endloop
endfacet
facet normal -0 0 1
  outer loop
    vertex -0.01452325378991704 -0.01065573469543648 0
    vertex -0.009244746680683792 -0.01595477714579524 0
    vertex -0.008046212077283612 -0.009770006817365392 0
  endloop
endfacet
facet normal 0 0 1
  outer loop
    vertex -0.01355353765681265 -0.003263261204241243 0
    vertex -0.01452325378991704 -0.01065573469543648 0
    vertex -0.008046212077283612 -0.009770006817365392 0
  endloop
endfacet
facet normal 0 0 1
  outer loop
    vertex 0.0178581651939461 -0.01435877458079023 0
    vertex 0.01454913437485576 -0.01965515139924178 0
    vertex 0.02047659429655951 -0.02192507892834383 0
  endloop
endfacet
facet normal 0 0 1
  outer loop
    vertex 0.02888751862043398 0.008093903134710716 0
    vertex 0.02194839416495421 0.009473760193458658 0
    vertex 0.02243423357978701 0.003083514431414026 0
  endloop
endfacet
facet normal 0 0 1
  outer loop
    vertex -0.008046212077283612 -0.009770006817365392 0
    vertex -0.009244746680683792 -0.01595477714579524 0
    vertex -0.002889928070399584 -0.01602212767689596 0
  endloop
endfacet
facet normal 0 0 1
  outer loop
    vertex -0.00204727240094004 0.02993006307571618 0
    vertex 0.001948522752560474 0.02537108805127139 0
    vertex 0.006103680391579071 0.02937252263046967 0
  endloop
endfacet
facet normal 0 0 1
  outer loop
    vertex 0.006103680391579071 0.02937252263046967 0
    vertex 0.008312096995849573 0.02404797980791567 0
    vertex 0.0138019511319346 0.02663655655207123 0
  endloop
endfacet
facet normal 0 0 1
  outer loop
    vertex 0.0009137375255584646 0.01214875575888631 0
    vertex -0.00349406453796325 0.01679952109879574 0
    vertex -0.007846718834521177 0.01230011916193205 0
  endloop
endfacet
facet normal 0 0 1
  outer loop
    vertex -0.01545651950232041 -0.01654989131189602 0
    vertex -0.02047868869453437 -0.01353413420163437 0
    vertex -0.02327133872113279 -0.01893263832978135 0
  endloop
endfacet
facet normal 0 -0 1
  outer loop
    vertex 0.01585812306510155 -0.006997145670337229 0
    vertex 0.01726343721927179 -0.0004014866333292329 0
    vertex 0.01058279919313755 -0.0003009222305551742 0
  endloop
endfacet
facet normal 0 0 1
  outer loop
    vertex -0.01452325378991704 -0.01065573469543648 0
    vertex -0.02047868869453437 -0.01353413420163437 0
    vertex -0.01545651950232041 -0.01654989131189602 0
  endloop
endfacet
facet normal 0 0 1
  outer loop
    vertex -0.01551264018282445 0.01641379366126419 0
    vertex -0.02018245193412148 0.01121480002304739 0
    vertex -0.01399329001913846 0.009782805816618384 0
  endloop
endfacet
facet normal -0 0 1
  outer loop
    vertex 0.01768527843208152 0.01425003270129772 0
    vertex 0.02194839416495421 0.009473760193458658 0
    vertex 0.02563258213639467 0.01558751850106298 0
  endloop
endfacet
facet normal 0 0 1
  outer loop
    vertex 0.02243423357978701 0.003083514431414026 0
    vertex 0.01726343721927179 -0.0004014866333292329 0
    vertex 0.02281292434406354 -0.003692263964131712 0
  endloop
endfacet
facet normal 0 0 1
  outer loop
    vertex -0.01399329001913846 0.009782805816618384 0
    vertex -0.01724869810456537 0.004659924119464684 0
    vertex -0.009713042097119387 0.004190896197962637 0
  endloop
endfacet
facet normal 0 -0 1
  outer loop
    vertex 0.01380195113193436 -0.02663655655207136 0
    vertex 0.01454913437485576 -0.01965515139924178 0
    vertex 0.008606456164735351 -0.02111591952905451 0
  endloop
endfacet
facet normal 0 0 1
  outer loop
    vertex -0.01724869810456537 0.004659924119464684 0
    vertex -0.02357374577562801 0.006288296109927736 0
    vertex -0.02228545265282817 -0.0001970755068895343 0
  endloop
endfacet
facet normal 0 0 1
  outer loop
    vertex -0.02751633904516352 0.01195203269538741 0
    vertex -0.02357374577562801 0.006288296109927736 0
    vertex -0.02018245193412148 0.01121480002304739 0
  endloop
endfacet
facet normal 0 0 1
  outer loop
    vertex 0.01130199996611396 -0.01374819530912856 0
    vertex 0.01454913437485576 -0.01965515139924178 0
    vertex 0.0178581651939461 -0.01435877458079023 0
  endloop
endfacet
facet normal 0 0 1
  outer loop
    vertex -0.02078666253055485 -0.007528485441396248 0
    vertex -0.02047868869453437 -0.01353413420163437 0
    vertex -0.01452325378991704 -0.01065573469543648 0
  endloop
endfacet
facet normal 0 0 1
  outer loop
    vertex -0.005493354913533546 -0.02289032463157087 0
    vertex -0.01150828382502279 -0.02163438350862794 0
    vertex -0.01004638836512992 -0.02826782766356449 0
  endloop
endfacet
facet normal 0 0 1
  outer loop
    vertex 0.02888751862043396 -0.008093903134710784 0
    vertex 0.02281292434406354 -0.003692263964131712 0
    vertex 0.02243423357978695 -0.009744562777827056 0
  endloop
endfacet
facet normal 0 -0 1
  outer loop
    vertex -0.01150828382502279 -0.02163438350862794 0
    vertex -0.009244746680683792 -0.01595477714579524 0
    vertex -0.01545651950232041 -0.01654989131189602 0
  endloop
endfacet
facet normal -0 0 1
  outer loop
    vertex 0.001948522752560474 0.02537108805127139 0
    vertex 0.008312096995849573 0.02404797980791567 0
    vertex 0.006103680391579071 0.02937252263046967 0
  endloop
endfacet
facet normal 0 -0 1
  outer loop
    vertex 0.00394014958181131 0.01957726140549945 0
    vertex 0.008312096995849573 0.02404797980791567 0
    vertex 0.001948522752560474 0.02537108805127139 0
  endloop
endfacet
endsolid Created by Gmsh
